<svg height="489pt" viewBox="0 -2 489.96016 489" width="489pt" xmlns="http://www.w3.org/2000/svg"><path d="m286.683594 152.335938c8.96875-9.796876 14.445312-22.847657 14.445312-37.175782 0-30.417968-24.660156-55.074218-55.078125-55.074218s-55.074219 24.65625-55.074219 55.074218c0 14.328125 5.476563 27.378906 14.445313 37.175782h-.140625c9.105469 10.785156 14.609375 24.707031 14.609375 39.929687 0 .925781-.027344 1.839844-.070313 2.753906h52.464844c-.039062-.914062-.070312-1.828125-.070312-2.753906 0-15.222656 5.503906-29.144531 14.609375-39.929687zm0 0" fill="#ffea94"/><path d="m262.574219 142.699219c0-9.128907-7.398438-16.523438-16.523438-16.523438s-16.519531 7.398438-16.519531 16.523438c0 7.6875 5.277344 14.09375 12.390625 15.9375v40.152343h8.261719v-40.152343c7.113281-1.84375 12.390625-8.25 12.390625-15.9375zm-16.523438 9.664062c-5.328125 0-9.664062-4.335937-9.664062-9.664062s4.335937-9.664063 9.664062-9.664063 9.664063 4.335938 9.664063 9.664063-4.335938 9.664062-9.664063 9.664062zm0 0" fill="#f9a7a7"/><path d="m285.578125 57.984375.226563.226563c3.164062 3.164062 8.292968 3.164062 11.457031 0l17.75-17.75c3.164062-3.164063 3.164062-8.292969 0-11.457032l-.226563-.226562c-3.164062-3.164063-8.289062-3.164063-11.453125 0l-17.753906 17.753906c-3.164063 3.164062-3.164063 8.289062 0 11.453125zm0 0" fill="#ffe164"/><path d="m244.957031 41.898438h-.300781c-4.476562 0-8.109375-3.632813-8.109375-8.113282v-25.191406c0-4.480469 3.632813-8.113281 8.109375-8.113281h.300781c4.480469 0 8.113281 3.632812 8.113281 8.113281v25.191406c-.003906 4.480469-3.632812 8.113282-8.113281 8.113282zm0 0" fill="#ffe164"/><path d="m204.726562 57.984375-.226562.226563c-3.164062 3.164062-8.292969 3.164062-11.457031 0l-17.75-17.75c-3.164063-3.164063-3.164063-8.292969 0-11.457032l.226562-.226562c3.164063-3.164063 8.289063-3.164063 11.453125 0l17.753906 17.753906c3.164063 3.164062 3.164063 8.289062 0 11.453125zm0 0" fill="#ffe164"/><path d="m304.015625 81.933594v-.320313c0-4.476562 3.625-8.101562 8.097656-8.101562h25.105469c4.472656 0 8.097656 3.625 8.097656 8.101562v.320313c0 4.472656-3.625 8.097656-8.097656 8.097656h-25.105469c-4.472656 0-8.097656-3.625-8.097656-8.097656zm0 0" fill="#ffdc85"/><path d="m144.292969 81.933594v-.320313c0-4.476562 3.628906-8.101562 8.101562-8.101562h25.105469c4.472656 0 8.101562 3.625 8.101562 8.101562v.320313c0 4.472656-3.628906 8.097656-8.101562 8.097656h-25.105469c-4.472656 0-8.101562-3.625-8.101562-8.097656zm0 0" fill="#ffe164"/><path d="m273.324219 211.542969h-54.546875c-1.667969 0-3.015625-1.351563-3.015625-3.015625v-10.492188c0-1.664062 1.347656-3.015625 3.015625-3.015625h54.546875c1.667969 0 3.019531 1.351563 3.019531 3.015625v10.492188c0 1.664062-1.351562 3.015625-3.019531 3.015625zm0 0" fill="#6bdddd"/><path d="m268.820312 228.0625h-44.160156c-2.632812 0-4.769531-2.132812-4.769531-4.769531v-11.75h53.699219v11.75c0 2.636719-2.136719 4.769531-4.769532 4.769531zm0 0" fill="#6bdddd"/><path d="m251.558594 250.09375h-11.015625c-9.125 0-16.519531-7.398438-16.519531-16.523438v-5.507812h44.058593v5.507812c0 9.128907-7.398437 16.523438-16.523437 16.523438zm0 0" fill="#6bdddd"/><g fill="#3762cc"><path d="m273.324219 215.542969h-54.546875c-3.871094 0-7.015625-3.148438-7.015625-7.015625v-10.492188c0-3.867187 3.144531-7.015625 7.015625-7.015625h54.546875c3.871093 0 7.019531 3.148438 7.019531 7.015625v10.492188c0 3.867187-3.148438 7.015625-7.019531 7.015625zm-53.5625-8h52.582031v-8.523438h-52.582031zm0 0"/><path d="m268.820312 232.0625h-44.160156c-4.835937 0-8.769531-3.933594-8.769531-8.769531v-11.75c0-2.207031 1.792969-4 4-4h53.699219c2.207031 0 4 1.792969 4 4v11.75c0 4.835937-3.933594 8.769531-8.769532 8.769531zm-44.929687-16.519531v7.75c0 .425781.34375.769531.769531.769531h44.160156c.425782 0 .769532-.34375.769532-.769531v-7.75zm0 0"/><path d="m251.558594 254.09375h-11.015625c-11.316407 0-20.523438-9.207031-20.523438-20.523438v-5.507812c0-2.207031 1.792969-4 4-4h44.0625c2.207031 0 4 1.792969 4 4v5.507812c0 11.316407-9.207031 20.523438-20.523437 20.523438zm-23.535156-22.03125v1.507812c0 6.90625 5.617187 12.523438 12.523437 12.523438h11.011719c6.90625 0 12.527344-5.617188 12.527344-12.523438v-1.507812zm0 0"/><path d="m272.28125 199.019531h-52.460938c-1.089843 0-2.128906-.445312-2.886718-1.230469-.753906-.789062-1.152344-1.847656-1.109375-2.9375.039062-.859374.066406-1.71875.066406-2.585937 0-13.648437-4.855469-26.914063-13.667969-37.347656-.175781-.207031-.324218-.425781-.453125-.65625-9.546875-10.808594-14.792969-24.652344-14.792969-39.101563 0-32.570312 26.5-59.074218 59.074219-59.074218s59.074219 26.5 59.074219 59.074218c0 14.453125-5.246094 28.296875-14.792969 39.101563-.125.230469-.277343.449219-.453125.65625-8.8125 10.4375-13.667968 23.699219-13.667968 37.347656 0 .863281.027343 1.71875.066406 2.574219.046875 1.089844-.347656 2.152344-1.105469 2.945312-.75.785156-1.796875 1.234375-2.890625 1.234375zm-48.402344-8h44.34375c.285156-14.757812 5.539063-29.050781 14.894532-40.484375.15625-.320312.363281-.625.613281-.898437 8.636719-9.433594 13.394531-21.679688 13.394531-34.476563 0-28.160156-22.910156-51.074218-51.074219-51.074218-28.164062 0-51.074219 22.914062-51.074219 51.074218 0 12.796875 4.757813 25.039063 13.394532 34.476563.257812.285156.472656.597656.636718.929687 9.34375 11.425782 14.59375 25.707032 14.871094 40.453125zm0 0"/></g><path d="m110.671875 263.9375c42.402344 0 76.78125 34.375 76.78125 76.78125v45.066406h3.734375c6.585938 0 11.921875 5.335938 11.921875 11.921875 0 6.585938-5.335937 11.925781-11.921875 11.925781h-5.828125c-6.605469 28.421876-28.910156 50.8125-57.351563 57.378907v13.382812h-67.21875v-29.828125c-16.457031-14.082031-26.898437-34.984375-26.898437-58.34375v-51.503906c0-42.40625 34.375-76.78125 76.78125-76.78125zm0 0" fill="#f9cfcf"/><path d="m128.011719 484.394531h-67.222657c-2.207031 0-4-1.789062-4-4v-28.015625c-17.117187-15.335937-26.898437-37.15625-26.898437-60.15625v-51.507812c0-44.539063 36.238281-80.78125 80.785156-80.78125 44.542969 0 80.78125 36.238281 80.78125 80.78125v41.070312c8.65625.140625 15.65625 7.230469 15.65625 15.921875 0 8.777344-7.140625 15.921875-15.921875 15.921875h-2.71875c-7.515625 27.320313-29.210937 49.023438-56.457031 56.496094v10.269531c-.003906 2.210938-1.796875 4-4.003906 4zm-63.222657-8h59.21875v-9.378906c0-1.863281 1.285157-3.480469 3.101563-3.898437 26.777344-6.183594 48.109375-27.535157 54.351563-54.390626.421874-1.808593 2.039062-3.09375 3.898437-3.09375h5.828125c4.367188 0 7.921875-3.550781 7.921875-7.921874 0-4.371094-3.554687-7.925782-7.921875-7.925782h-3.734375c-2.207031 0-4-1.792968-4-4v-45.066406c0-40.128906-32.652344-72.78125-72.78125-72.78125-40.132813 0-72.785156 32.652344-72.785156 72.78125v51.507812c0 21.28125 9.296875 41.4375 25.5 55.304688.886719.757812 1.398437 1.867188 1.398437 3.039062v25.824219zm0 0" fill="#3762cc"/><path d="m159.378906 386.40625c3.910156 0 7.082032-3.167969 7.082032-7.082031v-11.800781c0-3.910157-3.171876-7.082032-7.082032-7.082032-3.914062 0-7.082031 3.171875-7.082031 7.082032v11.800781c0 3.914062 3.167969 7.082031 7.082031 7.082031zm0 0" fill="#3762cc"/><path d="m125.914062 388.019531c0 15.011719-12.171874 27.183594-27.1875 27.183594-15.011718 0-27.183593-12.171875-27.183593-27.183594 0-15.015625 12.171875-27.183593 27.183593-27.183593 15.015626 0 27.1875 12.167968 27.1875 27.183593zm0 0" fill="#f9cfcf"/><path d="m20.121094 287.960938.003906.007812c13.699219-20.925781 38.175781-34.871094 66.101562-34.871094 5.941407 0 10.757813 4.554688 10.757813 10.179688v2.132812c0-2.511718.769531-4.847656 2.085937-6.796875h-.003906s.371094-.753906 1.464844-1.777343c1.445312-1.460938 3.246094-2.574219 5.277344-3.191407 2.84375-1.140625 6.820312-2.082031 12.296875-2.3125v-.003906c.011719 0 .023437 0 .03125.003906 5.6875-.238281 12.992187.292969 22.367187 2.191407 6.820313.746093 13.335938 2.484374 19.390625 5.070312.023438.007812.046875.011719.066407.019531v.007813c3.4375 1.472656 6.722656 3.222656 9.839843 5.210937 1.351563.828125 2.03125 1.347657 2.035157 1.351563 17.488281 12.0625 28.933593 32.023437 28.933593 54.625v24.449218c0 1.132813-.933593 2.050782-2.089843 2.050782h-101.699219v73l-12.261719 25.03125c-.347656.707031-1.078125 1.160156-1.878906 1.160156h-31.855469c-3.222656 0-6.386719-.460938-9.410156-1.328125-.09375-.039063-3.324219-1.402344-4.632813-3.5-3.09375-4.953125-10.382812-16.625-17.011718-27.285156-9.839844-15.824219-15.429688-33.894531-15.871094-52.433594-1.207032-50.804687 16.0625-72.992187 16.0625-72.992187zm0 0" fill="#4671c6"/><path d="m82.839844 449.496094h-31.855469c-3.546875 0-7.085937-.5-10.515625-1.484375-.144531-.042969-.289062-.09375-.433594-.152344-.75-.3125-4.585937-2.023437-6.488281-5.074219-3.09375-4.953125-10.382813-16.628906-17.015625-27.292968-10.324219-16.597657-16.019531-35.425782-16.46875-54.449219-1.207031-50.753907 15.574219-73.800781 16.851562-75.472657 15.058594-22.847656 40.949219-36.476562 69.308594-36.476562 4.535156 0 8.597656 1.972656 11.304688 5.074219.085937-.082031.175781-.167969.265625-.253907 1.785156-1.808593 4.128906-3.238281 6.679687-4.046874 3.714844-1.460938 8.242188-2.316407 13.460938-2.535157h.050781c6.617187-.285156 14.402344.472657 23.132813 2.230469 7.011718.789062 13.84375 2.578125 20.304687 5.332031.039063.015625.085937.035157.125.054688 3.5625 1.523437 7.0625 3.378906 10.398437 5.507812 1.367188.835938 2.160157 1.429688 2.304688 1.542969 19.046875 13.128906 30.511719 34.78125 30.511719 57.804688v24.453124c0 3.335938-2.730469 6.050782-6.089844 6.050782h-97.691406v69c0 .609375-.136719 1.210937-.40625 1.757812l-12.265625 25.03125c-1.011719 2.0625-3.160156 3.398438-5.46875 3.398438zm-39.90625-9.101563c2.628906.734375 5.335937 1.105469 8.050781 1.105469h30.667969l11.328125-23.121094v-72.070312c0-2.207032 1.792969-4 4-4h99.785156v-22.503906c0-20.394532-10.167969-39.582032-27.207031-51.332032-.226563-.167968-.792969-.585937-1.851563-1.234375-3.039062-1.9375-6.15625-3.589843-9.324219-4.945312-.023437-.007813-.042968-.019531-.066406-.027344-5.800781-2.476563-11.945312-4.082031-18.25-4.773437-.121094-.011719-.238281-.03125-.359375-.054688-8.179687-1.652344-15.375-2.363281-21.40625-2.117188-.078125 0-.15625.003907-.230469 0-4.203124.1875-7.882812.871094-10.78125 2.03125-.105468.042969-.214843.082032-.324218.113282-1.347656.410156-2.589844 1.164062-3.589844 2.175781-.605469.574219-.800781.886719-.804688.890625-.078124.160156-.085937.160156-.1875.308594-.917968 1.363281-1.402343 2.941406-1.402343 4.566406 0 2.207031-1.789063 4-4 4-2.207031 0-4-1.792969-4-4v-2.136719c0-3.40625-3.03125-6.179687-6.757813-6.179687-25.738281 0-49.195312 12.359375-62.753906 33.066406-.082031.128906-.175781.253906-.273438.371094-1.328124 1.851562-16.246093 23.765625-15.136718 70.324218.417968 17.59375 5.699218 35.027344 15.265625 50.414063 6.628906 10.660156 13.914062 22.328125 17.007812 27.28125.339844.546875 1.605469 1.390625 2.601563 1.847656zm0 0" fill="#3762cc"/><path d="m125.914062 388.019531c0 15.011719-12.171874 27.183594-27.1875 27.183594-15.011718 0-27.183593-12.171875-27.183593-27.183594 0-15.015625 12.171875-27.183593 27.183593-27.183593 15.015626 0 27.1875 12.167968 27.1875 27.183593zm0 0" fill="#f9cfcf"/><path d="m31.371094 312.777344h-.003906c.859374-13.179688 11.53125-20.179688 14.59375-21.929688 1.746093-10.289062 11.691406-18.1875 23.738281-18.1875.578125 0 1.140625.042969 1.707031.078125 3.53125-7.914062 12.191406-13.511719 22.332031-13.511719 5.347657 0 10.265625 1.570313 14.257813 4.199219 3.277344-1.492187 6.976562-2.351562 10.914062-2.351562 9.535156 0 17.746094 4.953125 21.632813 12.117187.339843.289063.605469.53125.804687.71875.53125-.03125 1.058594-.070312 1.601563-.070312 13.203125 0 23.910156 9.476562 24.027343 21.203125 6.761719 3.789062 11.273438 10.472656 11.273438 18.109375 0 11.160156-9.601562 20.3125-21.847656 21.300781l-.011719.097656s-8.003906 1.617188-16.078125-.449219c-2.785156 2.714844-11.113281 9.34375-25.964844 9.34375-3.429687 0-7.023437-.363281-10.722656-1.097656l-3.289062-.695312c-4.71875 2.972656-13.113282 3.859375-16.886719 4.113281-.191407.007813-.804688.007813-.804688.007813-.601562.023437-1.210937.035156-1.839843.035156-2.402344 0-4.847657-.1875-7.214844-.550782-3.902344-.535156-7.460938-1.472656-10.589844-2.792968-1.152344.164062-2.164062.792968-2.734375 1.722656l-7.84375 12.847656c-.3125.511719-.691406.976563-1.101563 1.410156-1.867187 2.984376-5.296874 4.816407-9.003906 4.816407h-.796875c-5.761719 0-10.433593-4.355469-10.433593-9.722657v-37.773437c-.003907-1.015625.097656-2.011719.285156-2.988281zm0 0" fill="#f9a7a7"/><path d="m42.3125 367.265625h-.796875c-7.960937 0-14.433594-6.15625-14.433594-13.722656v-37.777344c0-1.128906.101563-2.285156.304688-3.433594.945312-13.234375 10.339843-20.949219 15.015625-23.992187 2.847656-11.308594 13.679687-19.390625 26.605468-19.667969 4.835938-8.246094 14.25-13.445313 24.726563-13.445313 5.195313 0 10.195313 1.285157 14.601563 3.734376 3.367187-1.25 6.914062-1.886719 10.570312-1.886719 10.152344 0 19.308594 4.851562 24.304688 12.765625 14.34375.125 26.226562 10.148437 27.625 22.882812 7.183593 4.78125 11.410156 12.273438 11.410156 20.429688 0 12.96875-10.527344 23.664062-24.628906 25.203125-.140626.046875-.289063.085937-.4375.117187-.332032.070313-7.664063 1.511719-15.730469-.019531-4.222657 3.523437-13.054688 9-27.105469 9-3.695312 0-7.5625-.394531-11.5-1.175781l-1.875-.394532c-5.351562 2.703126-12.960938 3.589844-17.257812 3.882813-.378907.011719-1.070313.011719-1.070313.011719-.496094.023437-1.164063.035156-1.839844.035156-2.605469 0-5.238281-.199219-7.824219-.59375-3.445312-.46875-6.703124-1.253906-9.675781-2.335938l-7.46875 12.242188c-.371093.601562-.808593 1.1875-1.34375 1.785156-2.628906 3.929688-7.257812 6.355469-12.175781 6.355469zm-6.941406-54.421875c-.003906.230469-.027344.460938-.074219.691406-.144531.753906-.214844 1.503906-.214844 2.230469v37.777344c0 3.15625 2.882813 5.722656 6.433594 5.722656h.796875c2.324219 0 4.476562-1.125 5.617188-2.941406.132812-.21875.292968-.425781.46875-.613281.277343-.289063.472656-.539063.609374-.757813l7.839844-12.847656c1.195313-1.953125 3.226563-3.261719 5.585938-3.597657.714844-.101562 1.449218-.003906 2.117187.273438 2.808594 1.1875 6.03125 2.03125 9.574219 2.515625 2.835938.433594 5.695312.585937 8.363281.480469l.855469-.003906c6.46875-.441407 12.085938-1.753907 14.855469-3.5.878906-.554688 1.933593-.75 2.960937-.53125l3.292969.695312c3.375.667969 6.722656 1.011719 9.894531 1.011719 13.320313 0 20.640625-5.742188 23.171875-8.210938 1-.972656 2.429688-1.359375 3.785157-1.011719 5.792968 1.484376 11.691406.808594 13.632812.511719.359375-.144531.742188-.238281 1.140625-.273437 10.1875-.820313 18.167969-8.425782 18.167969-17.3125 0-5.917969-3.449219-11.382813-9.222656-14.617188-1.253907-.699218-2.035157-2.015625-2.046876-3.449218-.097656-9.511719-9.082031-17.246094-20.027343-17.246094-.351563 0-.699219.023437-1.042969.042968l-.320312.019532c-1.097657.070312-2.167969-.320313-2.96875-1.070313-.167969-.160156-.394532-.363281-.683594-.609375-.367188-.316406-.671875-.699218-.902344-1.125-3.304688-6.089844-10.417969-10.023437-18.117188-10.023437-3.242187 0-6.359374.667969-9.261718 1.992187-1.253906.570313-2.707032.457032-3.855469-.300781-3.519531-2.316406-7.6875-3.539063-12.058594-3.539063-8.195312 0-15.703125 4.476563-18.675781 11.140626-.679688 1.527343-2.257812 2.445312-3.90625 2.363281-.605469-.039063-1.027344-.070313-1.453125-.070313-9.847656 0-18.359375 6.386719-19.796875 14.855469-.199219 1.179687-.917969 2.207031-1.957031 2.800781-2.761719 1.578125-11.761719 7.539063-12.578125 18.527344zm0 0" fill="#3762cc"/><path d="m352.910156 480.480469v-16.34375c4.585938.894531 9.316406 1.375 14.160156 1.375 19.210938 0 36.691407-7.371094 49.792969-19.429688v34.398438zm0 0" fill="#f9cfcf"/><path d="m416.863281 484.480469h-63.953125c-2.207031 0-4-1.792969-4-4v-16.34375c0-1.195313.535156-2.328125 1.457032-3.085938.921874-.757812 2.136718-1.066406 3.308593-.835937 4.433594.863281 8.941407 1.300781 13.394531 1.300781 17.492188 0 34.210938-6.527344 47.082032-18.375 1.171875-1.074219 2.867187-1.355469 4.316406-.71875 1.457031.636719 2.394531 2.078125 2.394531 3.664063v34.394531c0 2.207031-1.789062 4-4 4zm-59.949219-8h55.953126v-21.9375c-15.929688 11.679687-35.953126 16.933593-55.953126 14.296875zm0 0" fill="#3762cc"/><path d="m292.726562 393.933594h.847657c-.015625-.65625-.046875-1.308594-.046875-1.96875v-49.335938c0-40.617187 32.925781-73.542968 73.542968-73.542968 40.621094 0 73.546876 32.925781 73.546876 73.542968v49.335938c0 40.621094-32.925782 73.546875-73.546876 73.546875-33.539062 0-61.8125-22.460938-70.65625-53.15625h-3.6875c-5.089843 0-9.210937-4.125-9.210937-9.210938 0-5.089843 4.121094-9.210937 9.210937-9.210937zm0 0" fill="#f9cfcf"/><path d="m367.070312 469.511719c-33.34375 0-63.183593-21.707031-73.605468-53.15625h-.738282c-7.285156 0-13.210937-5.925781-13.210937-13.210938 0-6.183593 4.269531-11.386719 10.011719-12.820312v-47.691407c0-42.757812 34.789062-77.546874 77.542968-77.546874 42.761719 0 77.546876 34.789062 77.546876 77.546874v49.335938c0 42.757812-34.785157 77.542969-77.546876 77.542969zm-74.34375-71.578125c-2.875 0-5.210937 2.335937-5.210937 5.210937s2.335937 5.210938 5.210937 5.210938h3.6875c1.78125 0 3.347657 1.179687 3.84375 2.894531 8.527344 29.59375 36 50.261719 66.8125 50.261719 38.351563 0 69.546876-31.199219 69.546876-69.546875v-49.335938c0-38.347656-31.199219-69.542968-69.546876-69.542968-38.34375 0-69.542968 31.195312-69.542968 69.542968v49.335938c0 .414062.015625.824218.027344 1.234375l.019531.625c.03125 1.078125-.375 2.125-1.128907 2.898437-.753906.773438-1.789062 1.210938-2.867187 1.210938zm0 0" fill="#3762cc"/><path d="m410.140625 252.746094h-33.300781c-3.324219 0-6.019532 3.121094-6.019532 6.96875v3.195312c0-5.324218-4.117187-9.640625-9.199218-9.640625h-15.222656c-35.941407 0-65.078126 30.539063-65.078126 68.210938v14.585937c0 3.484375 2.695313 6.308594 6.019532 6.308594h77.460937c3.324219 0 6.019531 2.824219 6.019531 6.308594v14.757812c.050782-.019531.105469-.035156.15625-.054687v56.210937c-.050781-.019531-.105468-.03125-.15625-.050781v51.421875c0 4.910156 3.4375 8.886719 7.675782 8.886719h51.199218c31.074219 0 56.265626-29.167969 56.265626-65.152344v-74.160156c0-48.488281-33.945313-87.796875-75.820313-87.796875zm0 0" fill="#4671c6"/><path d="m429.695312 483.859375h-51.199218c-6.441406 0-11.675782-5.785156-11.675782-12.886719v-51.425781c0-.375.050782-.746094.152344-1.097656v-53.84375c-.101562-.375-.152344-.765625-.152344-1.164063v-14.753906c0-1.273438-.90625-2.308594-2.019531-2.308594h-77.460937c-5.523438 0-10.019532-4.625-10.019532-10.3125v-14.585937c0-39.820313 30.988282-72.210938 69.078126-72.210938h15.222656c3.015625 0 5.800781 1.050781 8.027344 2.820313 1.820312-2.0625 4.375-3.339844 7.191406-3.339844h33.300781c44.011719 0 79.820313 41.179688 79.820313 91.796875v74.160156c0 38.128907-27.03125 69.152344-60.265626 69.152344zm-54.875-63.160156v50.273437c0 2.648438 1.683594 4.886719 3.675782 4.886719h51.203125c28.816406 0 52.261719-27.433594 52.261719-61.15625v-74.15625c0-46.207031-32.214844-83.800781-71.820313-83.800781h-33.296875c-.957031 0-2.019531 1.21875-2.019531 2.96875v3.195312c0 2.210938-1.792969 4-4 4s-4-1.789062-4-4c0-3.109375-2.335938-5.640625-5.203125-5.640625h-15.21875c-33.679688 0-61.078125 28.804688-61.078125 64.210938v14.585937c0 1.277344.902343 2.3125 2.019531 2.3125h77.460938c5.527343 0 10.019531 4.625 10.019531 10.308594v13.628906c.101562.34375.152343.707032.152343 1.074219v56.207031c0 .378906-.050781.75-.15625 1.101563zm0 0" fill="#3762cc"/><path d="m398.839844 391.871094c0 14.382812-11.65625 26.039062-26.039063 26.039062-14.378906 0-26.035156-11.65625-26.035156-26.039062 0-14.378906 11.65625-26.035156 26.035156-26.035156 14.382813 0 26.039063 11.65625 26.039063 26.035156zm0 0" fill="#f9cfcf"/><path d="m458.074219 312.375h.003906c-.839844-13.207031-11.234375-20.226562-14.21875-21.980469-1.703125-10.308593-11.394531-18.222656-23.128906-18.222656-.558594 0-1.109375.039063-1.664063.074219-3.4375-7.929688-11.871094-13.542969-21.753906-13.542969-5.207031 0-10 1.574219-13.886719 4.207031-3.195312-1.492187-6.804687-2.355468-10.636719-2.355468-9.285156 0-17.289062 4.964843-21.074218 12.144531-.332032.289062-.589844.53125-.785156.71875-.515626-.03125-1.03125-.070313-1.558594-.070313-12.863282 0-23.292969 9.5-23.40625 21.253906-6.589844 3.792969-10.984375 10.492188-10.984375 18.148438 0 11.183594 9.355469 20.355469 21.285156 21.347656l.011719.097656s7.796875 1.621094 15.664062-.453124c2.710938 2.726562 10.828125 9.371093 25.296875 9.371093 3.34375 0 6.84375-.367187 10.449219-1.101562l3.203125-.695313c4.59375 2.980469 12.773437 3.867188 16.453125 4.121094.183594.007812.78125.007812.78125.007812.585938.023438 1.183594.035157 1.792969.035157 2.339843 0 4.722656-.1875 7.03125-.550781 3.800781-.535157 7.265625-1.476563 10.316406-2.800782 1.121094.164063 2.109375.792969 2.664063 1.726563l7.640624 12.878906c.304688.511719.675782.976563 1.070313 1.414063 1.824219 2.988281 5.164063 4.824218 8.777344 4.824218h.777343c5.609376 0 10.164063-4.363281 10.164063-9.746094v-37.859374c-.003906-1.015626-.101563-2.015626-.285156-2.992188zm0 0" fill="#f9a7a7"/><path d="m448.191406 366.976562h-.777344c-4.851562 0-9.402343-2.449218-11.980468-6.417968-.53125-.609375-.953125-1.183594-1.308594-1.785156l-7.230469-12.1875c-2.871093 1.058593-6.023437 1.832031-9.390625 2.304687-3.101562.488281-6.445312.667969-9.515625.550781-.011719 0-.566406.003906-.75-.003906-4.339843-.296875-11.757812-1.1875-17-3.886719l-1.703125.371094c-3.902344.792969-7.6875 1.191406-11.296875 1.191406-13.691406 0-22.308593-5.460937-26.460937-9-7.855469 1.507813-14.988282.070313-15.3125 0-.152344-.03125-.296875-.070312-.441406-.117187-13.769532-1.558594-24.039063-12.265625-24.039063-25.242188 0-8.148437 4.113281-15.644531 11.113281-20.4375 1.339844-12.75 12.921875-22.800781 26.929688-22.964844 4.878906-7.933593 13.832031-12.796874 23.765625-12.796874 3.558593 0 7.007812.628906 10.289062 1.871093 4.292969-2.441406 9.171875-3.722656 14.234375-3.722656 10.253906 0 19.457032 5.207031 24.1875 13.476563 12.617188.316406 23.171875 8.421874 25.933594 19.746093 4.570312 3.0625 13.707031 10.792969 14.625 24.019531.199219 1.148438.296875 2.300782.296875 3.425782v37.859375c-.003906 7.578125-6.355469 13.746093-14.167969 13.746093zm-20.925781-28.847656c.191406 0 .386719.015625.582031.042969 2.339844.34375 4.351563 1.671875 5.523438 3.644531l7.640625 12.878906c.125.214844.320312.464844.59375.761719.167969.1875.320312.394531.453125.609375 1.09375 1.792969 3.148437 2.910156 5.359375 2.910156h.777343c3.398438 0 6.164063-2.578124 6.164063-5.75v-37.859374c0-.730469-.070313-1.492188-.214844-2.261719-.039062-.226563-.0625-.453125-.066406-.675781-.800781-11.035157-9.558594-17.007813-12.238281-18.585938-1.027344-.601562-1.726563-1.625-1.921875-2.796875-1.398438-8.480469-9.644531-14.875-19.179688-14.875-.414062 0-.8125.03125-1.21875.054687-1.667969.125-3.441406-.835937-4.117187-2.386718-2.929688-6.765625-10.03125-11.132813-18.085938-11.132813-4.214844 0-8.242187 1.214844-11.640625 3.519531-1.164062.789063-2.664062.90625-3.941406.308594-2.800781-1.3125-5.808594-1.976562-8.9375-1.976562-7.449219 0-14.332031 3.925781-17.539063 10.007812-.226562.425782-.527343.808594-.886718 1.128906-.28125.25-.5.453126-.664063.609376-.804687.773437-1.898437 1.183593-3.011719 1.109374l-.3125-.019531c-.332031-.019531-.667968-.042969-1.003906-.042969-10.609375 0-19.316406 7.757813-19.410156 17.289063-.011719 1.417969-.773438 2.722656-2.003906 3.429687-5.621094 3.238282-8.976563 8.726563-8.976563 14.683594 0 9.0625 7.570313 16.527344 17.613281 17.359375.421876.035157.820313.136719 1.195313.289063 1.9375.296875 7.589844.941406 13.128906-.519532 1.382813-.359374 2.847657.035157 3.855469 1.042969 2.453125 2.460938 9.550781 8.191407 22.460938 8.191407 3.074218 0 6.324218-.34375 9.648437-1.019532l3.152344-.6875c1.046875-.226562 2.132812-.027344 3.027343.550782 2.679688 1.738281 8.121094 3.042968 14.554688 3.492187l.503906-.003906c.691406.023437 1.234375.035156 1.792969.035156 2.128906 0 4.289063-.167969 6.40625-.5 3.507813-.496094 6.628906-1.335937 9.347656-2.519531.5-.222656 1.039063-.335938 1.589844-.335938zm0 0" fill="#3762cc"/><path d="m316.484375 386.277344c-3.710937 0-6.71875-3.007813-6.71875-6.71875v-11.195313c0-3.710937 3.007813-6.71875 6.71875-6.71875s6.71875 3.007813 6.71875 6.71875v11.195313c0 3.710937-3.007813 6.71875-6.71875 6.71875zm0 0" fill="#3762cc"/><path d="m61.441406 301.210938v8.835937c0 1.109375.902344 2.007813 2.007813 2.007813h6.300781c.355469 0 .667969.238281.769531.578124.460938 1.515626 1.070313 2.96875 1.804688 4.339844.167969.316406.117187.703125-.132813.957032l-4.460937 4.457031c-.785157.785156-.785157 2.058593 0 2.839843l6.246093 6.25c.785157.785157 2.058594.785157 2.839844 0l4.460938-4.460937c.253906-.25.640625-.304687.953125-.132813 1.375.734376 2.824219 1.339844 4.339843 1.804688.34375.101562.578126.410156.578126.769531v6.300781c0 1.109376.902343 2.007813 2.007812 2.007813h8.839844c1.109375 0 2.007812-.902344 2.007812-2.007813v-6.300781c0-.355469.234375-.667969.578125-.769531 1.515625-.464844 2.964844-1.070312 4.339844-1.804688.3125-.167968.699219-.117187.953125.132813l4.460938 4.460937c.78125.785157 2.054687.785157 2.839843 0l6.246094-6.25c.785156-.78125.785156-2.054687 0-2.839843l-4.460937-4.457031c-.25-.253907-.304688-.640626-.132813-.957032.734375-1.371094 1.34375-2.824218 1.804687-4.339844.101563-.339843.410157-.578124.769532-.578124h6.300781c1.109375 0 2.007813-.898438 2.007813-2.007813v-8.835937c0-1.109376-.902344-2.007813-2.007813-2.007813h-6.300781c-.355469 0-.667969-.234375-.769532-.578125-.460937-1.515625-1.070312-2.964844-1.804687-4.339844-.167969-.3125-.117187-.699218.132813-.953125l4.460937-4.460937c.785156-.78125.785156-2.054688 0-2.839844l-6.246094-6.246094c-.785156-.785156-2.058593-.785156-2.839843 0l-4.460938 4.457032c-.253906.253906-.640625.304687-.953125.136718-1.375-.738281-2.824219-1.34375-4.339844-1.804687-.34375-.105469-.578125-.414063-.578125-.769531v-6.300782c0-1.109375-.902344-2.007812-2.007812-2.007812h-8.839844c-1.109375 0-2.007812.898437-2.007812 2.007812v6.300782c0 .355468-.234376.664062-.578126.769531-1.515624.460937-2.964843 1.066406-4.339843 1.804687-.3125.167969-.699219.117188-.953125-.136718l-4.460938-4.457032c-.78125-.785156-2.054687-.785156-2.839844 0l-6.246093 6.246094c-.785157.785156-.785157 2.058594 0 2.839844l4.460937 4.460937c.25.253907.304688.636719.132813.953125-.734375 1.375-1.34375 2.828125-1.804688 4.339844-.101562.339844-.410156.578125-.769531.578125h-6.300781c-1.109375 0-2.007813.902344-2.007813 2.007813zm16.277344 4.417968c0-8.742187 7.113281-15.855468 15.855469-15.855468 8.746093 0 15.859375 7.113281 15.859375 15.855468 0 8.746094-7.113282 15.859375-15.859375 15.859375-8.742188 0-15.855469-7.113281-15.855469-15.859375zm0 0" fill="#ffea94"/><path d="m355.425781 298.417969-19.664062-14.425781c-2.703125-1.976563-6.507813-.050782-6.507813 3.300781v4.523437h-164.800781c-2.257813 0-4.089844 1.832032-4.089844 4.089844v11.617188c0 2.257812 1.832031 4.089843 4.089844 4.089843h164.800781v4.523438c0 3.347656 3.804688 5.277343 6.507813 3.296875l19.664062-14.421875c2.226563-1.632813 2.226563-4.960938 0-6.59375zm0 0" fill="#ffea94"/></svg>