<svg xmlns="http://www.w3.org/2000/svg" xmlns:xlink="http://www.w3.org/1999/xlink" width="501.01" height="501" viewBox="0 0 501.01 501"><defs><style>.a{fill:#231f20;stroke:#231f20;stroke-miterlimit:10;opacity:0;}.b{fill:url(#a);}.c{fill:url(#b);}.d{fill:url(#c);}.e{fill:url(#d);}.f{fill:url(#e);}.g{opacity:0.5;fill:url(#f);}.h{fill:url(#g);}.i{fill:url(#h);}.j{fill:url(#i);}.k{fill:url(#j);}.l{fill:url(#k);}.m{fill:url(#l);}.n{fill:url(#m);}.o{fill:#fff;}.p{fill:#e44d26;}.q{fill:#f16529;}.r{fill:#ebebeb;}.s{fill:#f7df1e;}.t{fill:#264de4;}.u{fill:#2965f1;}.v{fill:#dd0031;}.w{fill:#c3002f;}.x{fill:#61dafb;}</style><radialGradient id="a" cx="252.184" cy="161.749" r="383.75" gradientTransform="translate(88.94 97.476) scale(0.647 0.397)" gradientUnits="userSpaceOnUse"><stop offset="0" stop-color="#fff" stop-opacity="0.502"/><stop offset="0.27" stop-color="#c9c8c9" stop-opacity="0.38"/><stop offset="0.87" stop-color="#413e3f" stop-opacity="0.071"/><stop offset="1" stop-color="#231f20" stop-opacity="0"/></radialGradient><linearGradient id="b" x1="0.5" y1="0.989" x2="0.5" y2="0.025" gradientUnits="objectBoundingBox"><stop offset="0" stop-color="#fff" stop-opacity="0.502"/><stop offset="0.11" stop-color="#d0cfcf" stop-opacity="0.388"/><stop offset="0.29" stop-color="#929090" stop-opacity="0.251"/><stop offset="0.47" stop-color="#615e5f" stop-opacity="0.141"/><stop offset="0.65" stop-color="#3f3b3c" stop-opacity="0.059"/><stop offset="0.82" stop-color="#2a2627" stop-opacity="0.02"/><stop offset="1" stop-color="#231f20" stop-opacity="0"/></linearGradient><linearGradient id="c" x1="0.434" y1="0.188" x2="0.562" y2="0.308" gradientUnits="objectBoundingBox"><stop offset="0" stop-color="#fff" stop-opacity="0.302"/><stop offset="0.12" stop-color="#fff" stop-opacity="0.22"/><stop offset="0.32" stop-color="#fff" stop-opacity="0.129"/><stop offset="0.53" stop-color="#fff" stop-opacity="0.059"/><stop offset="0.75" stop-color="#fff" stop-opacity="0.012"/><stop offset="1" stop-color="#fff" stop-opacity="0"/></linearGradient><linearGradient id="d" x1="0.588" y1="0.826" x2="0.411" y2="0.673" gradientUnits="objectBoundingBox"><stop offset="0" stop-color="#fff" stop-opacity="0.302"/><stop offset="0.02" stop-color="#fff" stop-opacity="0.278"/><stop offset="0.15" stop-color="#fff" stop-opacity="0.18"/><stop offset="0.3" stop-color="#fff" stop-opacity="0.102"/><stop offset="0.47" stop-color="#fff" stop-opacity="0.039"/><stop offset="0.67" stop-color="#fff" stop-opacity="0.012"/><stop offset="1" stop-color="#fff" stop-opacity="0"/></linearGradient><linearGradient id="e" x1="0.008" y1="0.5" x2="0.982" y2="0.5" gradientUnits="objectBoundingBox"><stop offset="0" stop-color="#fff" stop-opacity="0.898"/><stop offset="0.03" stop-color="#fff" stop-opacity="0.769"/><stop offset="0.11" stop-color="#fff" stop-opacity="0.49"/><stop offset="0.18" stop-color="#fff" stop-opacity="0.278"/><stop offset="0.23" stop-color="#fff" stop-opacity="0.149"/><stop offset="0.25" stop-color="#fff" stop-opacity="0.102"/><stop offset="0.33" stop-color="#fff" stop-opacity="0.369"/><stop offset="0.51" stop-color="#fff"/><stop offset="0.68" stop-color="#fff" stop-opacity="0.471"/><stop offset="0.8" stop-color="#fff" stop-opacity="0.102"/><stop offset="0.82" stop-color="#fff" stop-opacity="0.129"/><stop offset="0.85" stop-color="#fff" stop-opacity="0.2"/><stop offset="0.89" stop-color="#fff" stop-opacity="0.322"/><stop offset="0.92" stop-color="#fff" stop-opacity="0.49"/><stop offset="0.96" stop-color="#fff" stop-opacity="0.698"/><stop offset="1" stop-color="#fff" stop-opacity="0.898"/></linearGradient><linearGradient id="f" x1="0.008" y1="1.717" x2="0.982" y2="1.717" gradientUnits="objectBoundingBox"><stop offset="0" stop-color="#fff" stop-opacity="0.502"/><stop offset="0.03" stop-color="#fff" stop-opacity="0.431"/><stop offset="0.13" stop-color="#fff" stop-opacity="0.231"/><stop offset="0.21" stop-color="#fff" stop-opacity="0.102"/><stop offset="0.25" stop-color="#fff" stop-opacity="0.051"/><stop offset="0.51" stop-color="#fff" stop-opacity="0.251"/><stop offset="0.81" stop-color="#fff" stop-opacity="0.051"/><stop offset="0.83" stop-color="#fff" stop-opacity="0.078"/><stop offset="0.85" stop-color="#fff" stop-opacity="0.149"/><stop offset="0.89" stop-color="#fff" stop-opacity="0.271"/><stop offset="0.92" stop-color="#fff" stop-opacity="0.439"/><stop offset="0.96" stop-color="#fff" stop-opacity="0.651"/><stop offset="1" stop-color="#fff" stop-opacity="0.898"/></linearGradient><linearGradient id="g" x1="1.173" y1="0.623" x2="0.831" y2="0.379" gradientUnits="objectBoundingBox"><stop offset="0" stop-color="#fff" stop-opacity="0.251"/><stop offset="0.01" stop-color="#fff" stop-opacity="0.251"/><stop offset="0.25" stop-color="#fff" stop-opacity="0.141"/><stop offset="0.5" stop-color="#fff" stop-opacity="0.059"/><stop offset="0.75" stop-color="#fff" stop-opacity="0.02"/><stop offset="1" stop-color="#fff" stop-opacity="0"/></linearGradient><linearGradient id="h" x1="-0.179" y1="0.629" x2="0.156" y2="0.388" gradientUnits="objectBoundingBox"><stop offset="0" stop-color="#fff" stop-opacity="0.251"/><stop offset="0.24" stop-color="#fff" stop-opacity="0.149"/><stop offset="0.5" stop-color="#fff" stop-opacity="0.071"/><stop offset="0.75" stop-color="#fff" stop-opacity="0.02"/><stop offset="1" stop-color="#fff" stop-opacity="0"/></linearGradient><linearGradient id="i" x1="0.596" y1="0.082" x2="0.535" y2="0.346" gradientUnits="objectBoundingBox"><stop offset="0" stop-color="#fff" stop-opacity="0.2"/><stop offset="0.16" stop-color="#fff" stop-opacity="0.141"/><stop offset="0.44" stop-color="#fff" stop-opacity="0.059"/><stop offset="0.72" stop-color="#fff" stop-opacity="0.02"/><stop offset="1" stop-color="#fff" stop-opacity="0"/></linearGradient><radialGradient id="j" cx="33.18" cy="7.409" r="164.366" gradientTransform="translate(26.69 7.148) scale(0.196 0.035)" gradientUnits="userSpaceOnUse"><stop offset="0" stop-color="#231f20" stop-opacity="0.502"/><stop offset="1" stop-color="#231f20" stop-opacity="0"/></radialGradient><radialGradient id="k" cx="33.18" cy="7.807" r="164.366" gradientTransform="translate(26.69 7.532) scale(0.196 0.035)" xlink:href="#j"/><radialGradient id="l" cx="33.18" cy="7.625" r="164.366" gradientTransform="translate(26.69 7.357) scale(0.196 0.035)" xlink:href="#j"/><radialGradient id="m" cx="33.18" cy="7.06" r="164.366" gradientTransform="translate(26.69 6.811) scale(0.196 0.035)" xlink:href="#j"/></defs><g transform="translate(0.51 0.5)"><rect class="a" width="500" height="500"/><rect class="b" width="500.2" height="323.79" transform="translate(-0.51 175.05)"/><path class="c" d="M249.59,449.56l241.83-145.1L249.59,159.37,7.76,304.46Z"/><path class="d" d="M249.59,159.37,7.76,304.46l241.83,145.1Z"/><path class="e" d="M249.59,159.37,491.42,304.46,249.59,449.56Z"/><path class="f" d="M249.59,452.68l241.83-145.1v-3.12L249.59,449.56,7.76,304.46v3.12Z"/><path class="g" d="M249.59,159.35l241.83,145.1v3.11L249.59,162.47,7.76,307.56v-3.11Z"/><path class="h" d="M491.42,304.46v-200H249.59v54.91Z"/><path class="i" d="M7.76,304.46v-200H249.59v54.91Z"/><path class="j" d="M249.59,449.56,491.42,304.47,249.59,159.37,7.76,304.47Z"/><ellipse class="k" cx="33.18" cy="6.49" rx="33.18" ry="6.49" transform="translate(330.79 304.21)"/><ellipse class="l" cx="33.18" cy="6.49" rx="33.18" ry="6.49" transform="translate(230.22 399.94)"/><ellipse class="m" cx="33.18" cy="6.49" rx="33.18" ry="6.49" transform="translate(111.83 356.8)"/><ellipse class="n" cx="33.18" cy="6.49" rx="33.18" ry="6.49" transform="translate(160.85 220.16)"/><path class="o" d="M114.23,236.05h4.91v4.87h4.53v-4.87h4.91v14.74h-4.91v-4.91h-4.49v4.91h-5ZM135.08,241h-4.34v-4.91h13.61V241H140v9.83h-4.91m11.43-14.74h5.14l3.17,5.19,3.16-5.19h5.15v14.74h-4.92v-7.31l-3.44,5.3-3.44-5.3v7.31h-4.82m19.05-14.74h4.92v9.87h7v4.87H165.56"/><path class="p" d="M114.06,336.67,107,257.54h77.51l-7,79.09-31.76,8.8Z"/><path class="q" d="M145.76,338.7V264h31.68l-6.05,67.51"/><path class="r" d="M121.4,273.71h24.36v9.7H132l.9,9.94h12.82V303H124.05m.43,4.87h9.74l.69,7.75,10.85,2.91v10.13l-19.91-5.56"/><path class="o" d="M170,273.71H145.72v9.7h23.41m-.88,9.94H145.72v9.7h12l-1.13,12.6-10.83,2.91v10.08l19.86-5.51"/><rect class="s" width="72.41" height="72.41" transform="translate(157.83 128.17)"/><path d="M206.47,184.74c1.46,2.39,3.35,4.13,6.71,4.13,2.82,0,4.62-1.41,4.62-3.35,0-2.33-1.85-3.16-5-4.52l-1.71-.73c-4.91-2.09-8.17-4.71-8.17-10.25,0-5.1,3.89-9,10-9,4.33,0,7.44,1.51,9.68,5.45l-5.3,3.41c-1.17-2.09-2.42-2.92-4.38-2.92a3,3,0,0,0-3.24,2.65,2.437,2.437,0,0,0,0,.27c0,2,1.26,2.87,4.18,4.13l1.7.73c5.78,2.48,9.05,5,9.05,10.69,0,6.12-4.81,9.48-11.28,9.48-6.31,0-10.4-3-12.39-7Zm-24,.59c1.07,1.9,2,3.5,4.38,3.5s3.65-.87,3.65-4.27V161.42h6.8v23.23c0,7-4.13,10.25-10.16,10.25a10.56,10.56,0,0,1-10.21-6.21Z"/><path class="t" d="M304.53,296.71,297,380.59l-33.65,9.33-33.56-9.32-7.48-83.89Z"/><path class="u" d="M290.63,375.25l6.4-71.68H263.44v79.22Z"/><path class="r" d="M239.49,334.69l.93,10.28h23V334.69Z"/><path class="r" d="M263.44,313.86h-25.8l.93,10.28h24.87Z"/><path class="r" d="M263.44,372.11v-10.7h-.05l-11.45-3.09-.74-8.21H240.87l1.45,16.16,21.07,5.85Z"/><path class="o" d="M241.69,273.92h12.46v5.21H246.9v5.21h7.25v5.21H241.69Z"/><path class="o" d="M256.64,273.92H269.1v4.53h-7.25v.9h7.25v10.43H256.64V285h7.25v-.9h-7.25Z"/><path class="o" d="M271.59,273.92h12.47v4.53h-7.25v.9h7.25v10.43H271.59V285h7.25v-.9h-7.25Z"/><path class="o" d="M276.07,345l-1.19,13.35-11.48,3.1v10.7l21.09-5.85.16-1.74,2.42-27.08.25-2.77,1.86-20.82H263.4v10.29h14.5l-.9,10.5H263.4V345Z"/><path class="v" d="M364,203.19h0l-43.59,15.54L327,276.36l37,20.45h0l36.93-20.45,6.65-57.63Z"/><path class="w" d="M364,203.19V261h0v35.86h0l36.93-20.45,6.65-57.63Z"/><path class="o" d="M364,213.53l-27.25,61.09h10.16L352.36,261h23.12L381,274.62h10.16Zm7.95,39H356l8-19.15Z"/><path class="x" d="M367.26,126.92c0-5.58-7-10.86-17.68-14.14,2.47-10.91,1.37-19.59-3.47-22.36a7.46,7.46,0,0,0-3.84-1v3.82a4,4,0,0,1,2,.45c2.33,1.34,3.34,6.43,2.55,13-.19,1.61-.5,3.31-.87,5.05A84,84,0,0,0,335,109.89a84.783,84.783,0,0,0-7.14-8.58c5.59-5.19,10.84-8,14.41-8V89.44h0c-4.72,0-10.89,3.36-17.14,9.19-6.24-5.8-12.42-9.12-17.13-9.12v3.82c3.55,0,8.81,2.83,14.4,8a80.5,80.5,0,0,0-7.08,8.55,80.539,80.539,0,0,0-10.91,1.89c-.39-1.72-.68-3.38-.89-5-.81-6.55.19-11.64,2.5-13a3.79,3.79,0,0,1,2-.44V89.52h0a7.81,7.81,0,0,0-3.88,1c-4.82,2.78-5.9,11.44-3.41,22.32-10.67,3.29-17.62,8.55-17.62,14.12s7,10.85,17.68,14.13c-2.47,10.91-1.37,19.59,3.47,22.37a7.55,7.55,0,0,0,3.86,1c4.71,0,10.89-3.37,17.13-9.2,6.25,5.8,12.42,9.13,17.14,9.13a7.75,7.75,0,0,0,3.88-1c4.82-2.78,5.9-11.44,3.41-22.32C360.32,137.76,367.26,132.47,367.26,126.92Zm-22.33-11.44c-.63,2.21-1.42,4.48-2.31,6.77-.71-1.37-1.44-2.74-2.25-4.12s-1.63-2.7-2.47-4c2.43.35,4.78.8,7.03,1.35Zm-7.85,18.26c-1.34,2.32-2.71,4.51-4.14,6.56-2.55.22-5.14.34-7.75.34s-5.18-.12-7.71-.33q-2.14-3.06-4.15-6.51c-1.31-2.25-2.5-4.52-3.57-6.83,1.06-2.3,2.26-4.6,3.55-6.84s2.71-4.51,4.13-6.56c2.56-.22,5.15-.34,7.76-.34s5.17.12,7.71.33c1.42,2,2.81,4.21,4.15,6.51s2.49,4.52,3.57,6.83c-1.08,2.3-2.27,4.6-3.56,6.84Zm5.54-2.23c.92,2.3,1.71,4.6,2.36,6.83-2.24.55-4.61,1-7.06,1.37.84-1.32,1.68-2.67,2.47-4.07s1.52-2.76,2.23-4.13Zm-17.39,18.3a65.582,65.582,0,0,1-4.77-5.49c1.54.07,3.12.13,4.71.13s3.21,0,4.77-.13a65,65,0,0,1-4.72,5.49Zm-12.77-10.09c-2.43-.36-4.78-.81-7-1.36.64-2.21,1.42-4.49,2.32-6.77.7,1.37,1.44,2.74,2.24,4.11s1.63,2.71,2.47,4ZM325.14,104a70.917,70.917,0,0,1,4.76,5.49c-1.54-.07-3.12-.12-4.71-.12s-3.21,0-4.77.12a68.3,68.3,0,0,1,4.72-5.49Zm-12.7,10.1c-.84,1.32-1.68,2.68-2.47,4.07s-1.52,2.74-2.23,4.12c-.92-2.3-1.71-4.6-2.36-6.83C307.62,114.92,309.99,114.46,312.44,114.1Zm-15.52,21.5c-6.07-2.59-10-6-10-8.68s3.93-6.11,10-8.68c1.48-.64,3.09-1.2,4.75-1.73A82.721,82.721,0,0,0,305.53,127a83.479,83.479,0,0,0-3.81,10.4c-1.69-.54-3.31-1.12-4.8-1.75Zm9.23,24.51c-2.33-1.34-3.35-6.43-2.56-13a49.606,49.606,0,0,1,.88-5,83.411,83.411,0,0,0,10.89,1.86,83.693,83.693,0,0,0,7.14,8.58c-5.59,5.2-10.84,8-14.41,8a4.2,4.2,0,0,1-1.94-.46ZM346.83,147c.81,6.55-.19,11.64-2.5,13a3.88,3.88,0,0,1-2,.45c-3.55,0-8.82-2.83-14.41-8A80.5,80.5,0,0,0,335,143.9a80.541,80.541,0,0,0,10.91-1.89,46.517,46.517,0,0,1,.89,5Zm6.61-11.44c-1.48.63-3.09,1.2-4.75,1.73a82.012,82.012,0,0,0-3.87-10.45,79.73,79.73,0,0,0,3.81-10.39c1.7.53,3.31,1.12,4.82,1.75,6.07,2.59,10,6,10,8.68s-3.94,6.1-10,8.68Z"/><circle class="x" cx="7.84" cy="7.84" r="7.84" transform="translate(317.33 119.08)"/></g></svg>